<?xml version="1.0" encoding="UTF-8" standalone="no"?>
<svg
   xmlns:dc="http://purl.org/dc/elements/1.1/"
   xmlns:cc="http://creativecommons.org/ns#"
   xmlns:rdf="http://www.w3.org/1999/02/22-rdf-syntax-ns#"
   xmlns:svg="http://www.w3.org/2000/svg"
   xmlns="http://www.w3.org/2000/svg"
   xmlns:xlink="http://www.w3.org/1999/xlink"
   xmlns:sodipodi="http://sodipodi.sourceforge.net/DTD/sodipodi-0.dtd"
   xmlns:inkscape="http://www.inkscape.org/namespaces/inkscape"
   width="2845px"
   height="2845px"
   viewBox="0 0 2845 2845"
   version="1.1"
   id="svg337"
   sodipodi:docname="chronicled-hero.svg"
   inkscape:version="0.92.3 (2405546, 2018-03-11)">
  <metadata
     id="metadata341">
    <rdf:RDF>
      <cc:Work
         rdf:about="">
        <dc:format>image/svg+xml</dc:format>
        <dc:type
           rdf:resource="http://purl.org/dc/dcmitype/StillImage" />
        <dc:title>chronicled-hero</dc:title>
      </cc:Work>
    </rdf:RDF>
  </metadata>
  <sodipodi:namedview
     pagecolor="#ffffff"
     bordercolor="#666666"
     borderopacity="1"
     objecttolerance="10"
     gridtolerance="10"
     guidetolerance="10"
     inkscape:pageopacity="0"
     inkscape:pageshadow="2"
     inkscape:window-width="1278"
     inkscape:window-height="1368"
     id="namedview339"
     showgrid="false"
     inkscape:zoom="0.46925048"
     inkscape:cx="1370.9211"
     inkscape:cy="1430.257"
     inkscape:window-x="-7"
     inkscape:window-y="0"
     inkscape:window-maximized="0"
     inkscape:current-layer="chronicled-hero"
     showguides="false" />
  <!-- Generator: Sketch 47.1 (45422) - http://www.bohemiancoding.com/sketch -->
  <title
     id="title2">chronicled-hero</title>
  <desc
     id="desc4">Created with Sketch.</desc>
  <defs
     id="defs18">
    <path
       d="M47.4275984,116.982312 C55.5419365,122.626313 65.3465889,125.99975 75.9333333,125.99975 C87.8928333,125.99975 98.8543524,121.695563 107.374413,114.539625 L113.713357,120.926312 C103.558178,129.699375 90.3602413,135.000187 75.9333333,135.000187 C66.1181524,135.000187 56.871727,132.546875 48.7653651,128.215063 L42.1509762,134.804688 C52.0693159,140.6495 63.6129905,143.999562 75.9333333,143.999562 C92.8274365,143.999562 108.261046,137.701062 120.046346,127.306625 L126.375506,133.682687 C112.96317,145.699562 95.2945254,153 75.9333333,153 C57.9393667,153 41.4071698,146.694062 28.3952381,136.15725 L47.4275984,116.982312 Z M24.8716762,126.978313 L21.764046,130.1095 C8.30300159,116.3055 0,97.38025 0,76.5 C0,34.2496875 33.9965444,0 75.9333333,0 C96.6583476,0 115.44419,8.3650625 129.145797,21.9268125 L122.828654,28.2911875 C110.743981,16.35825 94.1915778,9.0004375 75.9333333,9.0004375 C38.9302968,9.0004375 8.93333333,39.221125 8.93333333,76.5 C8.93333333,91.6586875 13.8930349,105.649688 22.2666524,116.9175 L28.6889746,110.519125 C21.8764571,100.93325 17.8666667,89.188375 17.8666667,76.5 C17.8666667,44.1915 43.8640492,17.9998125 75.9333333,17.9998125 C91.7247016,17.9998125 106.043665,24.350375 116.511511,34.6555625 L99.9116762,51.37825 L97.5587,53.74975 L96.6807873,52.93375 C91.1608381,47.997375 83.8945286,45.0000625 75.9333333,45.0000625 C58.6652,45.0000625 44.6666667,59.102625 44.6666667,76.5 C44.6666667,93.897375 58.6652,107.999938 75.9333333,107.999938 C82.9564222,107.999938 89.4387254,105.666688 94.6583444,101.729063 L101.025684,108.143375 C94.1485063,113.685375 85.4251063,117.000375 75.9333333,117.000375 C53.7314476,117.000375 35.7333333,98.86775 35.7333333,76.5 C35.7333333,54.13225 53.7314476,35.999625 75.9333333,35.999625 C83.559954,35.999625 90.6905619,38.1395 96.765973,41.856125 L103.27816,35.3685 C95.461281,30.083625 86.0546937,27.00025 75.9333333,27.00025 C48.7976952,27.00025 26.8,49.161875 26.8,76.5 C26.8,89.923625 32.103954,102.099875 40.7156873,111.016375 L24.8716762,126.978313 Z M125.066667,76.5 C125.066667,65.834625 121.718368,55.9565625 116.023049,47.8751875 L122.416338,41.4343125 C129.690517,51.2050625 134,63.3451875 134,76.5 C134,91.035 128.738692,104.331125 120.030181,114.561937 L113.691237,108.17525 C120.793768,99.592375 125.066667,88.54875 125.066667,76.5 Z"
       id="path-1" />
    <linearGradient
       x1="50%"
       y1="-6.92927513%"
       x2="50%"
       y2="113.776428%"
       id="linearGradient-3">
      <stop
         stop-color="#7573AB"
         offset="0%"
         id="stop7" />
      <stop
         stop-color="#FFFFFF"
         offset="30.0462372%"
         id="stop9" />
      <stop
         stop-color="#9D9CCD"
         offset="61.0530931%"
         id="stop11" />
      <stop
         stop-color="#CFCFE7"
         offset="81.385523%"
         id="stop13" />
      <stop
         stop-color="#414065"
         offset="100%"
         id="stop15" />
    </linearGradient>
    <linearGradient
       gradientUnits="userSpaceOnUse"
       gradientTransform="matrix(-1.0052232,0,0,-0.99480389,2845.6437,2848.024)"
       x1="1415.1083"
       y1="1283.2747"
       x2="1415.1083"
       y2="1594.8469"
       id="linearGradient-3-8">
      <stop
         stop-color="#7573AB"
         offset="0%"
         id="stop7-6" />
      <stop
         stop-color="#FFFFFF"
         offset="30.0462372%"
         id="stop9-3" />
      <stop
         stop-color="#9D9CCD"
         offset="61.0530931%"
         id="stop11-7" />
      <stop
         stop-color="#CFCFE7"
         offset="81.385523%"
         id="stop13-7" />
      <stop
         stop-color="#414065"
         offset="100%"
         id="stop15-6" />
    </linearGradient>
  </defs>
  <g
     id="Homepage"
     style="fill:none;fill-rule:evenodd;stroke:none;stroke-width:1">
    <g
       id="chronicled-hero-copy"
       transform="translate(-16,-12)">
      <g
         id="chronicled-hero"
         transform="translate(17,13)">
        <circle
           id="Oval"
           cx="1422.5"
           cy="1421.5"
           r="1264.5"
           style="fill:#2a1255;fill-opacity:0.07999998" />
        <circle
           id="Oval-Copy-11"
           cx="2024.5"
           cy="1422.5"
           r="68.5"
           style="fill:#6fa6ac" />
        <circle
           id="circle22"
           cx="1422.5"
           cy="1421.5"
           r="861.5"
           style="fill:#2a1255;fill-opacity:0.15" />
        <circle
           id="circle24"
           cx="1423"
           cy="1422"
           r="521"
           style="fill:#2a1255;fill-opacity:0.3" />
        <circle
           id="circle26"
           cx="1421.5"
           cy="1422.5"
           r="602.5"
           style="opacity:0.25294387;stroke:#ffffff" />
        <circle
           id="circle28"
           cx="1421.5"
           cy="1424.5"
           r="1100.5"
           style="opacity:0.25294387;stroke:#ffffff" />
        <path
           d="M 1421.5,2843 C 2206.5728,2843 2843,2206.5728 2843,1421.5 2843,636.42723 2206.5728,0 1421.5,0 636.42723,0 0,636.42723 0,1421.5 0,1783.692 135.4586,2114.2459 358.47837,2365.2644 618.86728,2658.3434 998.61921,2843 1421.5,2843 Z"
           id="path30"
           inkscape:connector-curvature="0"
           style="opacity:0.25294387;stroke:#ffffff" />
        <circle
           id="Oval-Copy"
           cx="2411.5"
           cy="937.5"
           r="68.5"
           style="fill:#f8c644;fill-opacity:0.7" />
        <circle
           id="Oval-Copy-3"
           cx="2784.5"
           cy="1009.5"
           r="18.5"
           style="fill:#6da8f1;fill-opacity:0.7" />
        <circle
           id="circle42"
           cx="1463.5"
           cy="2023.5"
           r="11.5"
           style="fill:#6da8f1;fill-opacity:0.7" />
        <circle
           id="circle44"
           cx="900.5"
           cy="456.5"
           r="11.5"
           style="fill:#6da8f1;fill-opacity:0.7" />
        <circle
           id="circle46"
           cx="323.5"
           cy="1433.5"
           r="11.5"
           style="fill:#6da8f1;fill-opacity:0.7" />
        <circle
           id="circle48"
           cx="489.5"
           cy="2010.5"
           r="18.5"
           style="fill:#6da8f1;fill-opacity:0.7" />
        <circle
           id="Oval-Copy-10"
           cx="2143.5"
           cy="592.5"
           r="18.5"
           style="fill:#6464ed" />
        <circle
           id="circle51"
           cx="848.5"
           cy="1613.5"
           r="18.5"
           style="fill:#f8c644;fill-opacity:0.7" />
        <circle
           id="Oval-Copy-13"
           cx="2433"
           cy="423"
           r="9"
           style="fill:#f8c644;fill-opacity:0.7" />
        <circle
           id="circle54"
           cx="2560"
           cy="1975"
           r="10"
           style="fill:#f8c644;fill-opacity:0.7" />
        <circle
           id="circle56"
           cx="1611"
           cy="938"
           r="10"
           style="fill:#f8c644;fill-opacity:0.7" />
        <circle
           id="Oval-Copy-4"
           cx="209.5"
           cy="675.5"
           r="18.5"
           style="fill:#f8c644;fill-opacity:0.7" />
        <circle
           id="Oval-Copy-6"
           cx="2093.5"
           cy="2490.5"
           r="18.5"
           style="fill:#efbd53;fill-opacity:0.7" />
        <circle
           id="Oval-Copy-7"
           cx="2249"
           cy="1664"
           r="11"
           style="fill:#c7969e;fill-opacity:0.7" />
        <circle
           id="circle61"
           cx="965"
           cy="1028"
           r="15"
           style="fill:#c7969e;fill-opacity:0.7" />
        <circle
           id="circle63"
           cx="1194"
           cy="2252"
           r="9"
           style="fill:#c7969e;fill-opacity:0.7" />
        <circle
           id="circle65"
           cx="428"
           cy="949"
           r="9"
           style="fill:#c7969e;fill-opacity:0.7" />
        <circle
           id="circle67"
           cx="1421.5"
           cy="324.5"
           r="18.5"
           style="fill:#c7969e;fill-opacity:0.7" />
        <circle
           id="Oval-Copy-8"
           cx="2565.5"
           cy="2264.5"
           r="18.5"
           style="fill:#6fa6ac;fill-opacity:0.7" />
        <circle
           id="circle70"
           cx="353"
           cy="2357"
           r="10"
           style="fill:#f29581;fill-opacity:0.7" />
        <circle
           id="circle72"
           cx="563.5"
           cy="490.5"
           r="8.5"
           style="fill:#6fa6ac" />
        <circle
           id="Oval-Copy-2"
           cx="794.5"
           cy="2016.5"
           r="68.5"
           style="fill:#6fa6ac" />
        <circle
           id="circle75"
           cx="2225.5"
           cy="1114.5"
           r="9.5"
           style="fill:#6fa6ac;fill-opacity:0.8" />
        <circle
           id="circle77"
           cx="822.5"
           cy="2534.5"
           r="9.5"
           style="fill:#6fa6ac;fill-opacity:0.8" />
        <circle
           id="circle79"
           cx="85.5"
           cy="1905.5"
           r="9.5"
           style="fill:#6fa6ac;fill-opacity:0.8" />
        <circle
           id="Oval-Copy-9"
           cx="655.5"
           cy="1037.5"
           r="68.5"
           style="fill:#60a8f7" />
        <circle
           id="Oval-2"
           cx="2202"
           cy="782"
           r="3"
           style="fill:#ffffff" />
        <circle
           id="circle85"
           cx="2303.5"
           cy="523.5"
           r="4.5"
           style="fill:#ffffff" />
        <circle
           id="circle87"
           cx="2562"
           cy="1222"
           r="3"
           style="opacity:0.57948369;fill:#ffffff" />
        <circle
           id="circle89"
           cx="2144"
           cy="1272"
           r="3"
           style="opacity:0.57948369;fill:#ffffff" />
        <circle
           id="circle91"
           cx="2052"
           cy="1742"
           r="3"
           style="opacity:0.64430482;fill:#ffffff" />
        <circle
           id="circle93"
           cx="2102"
           cy="2142"
           r="3"
           style="opacity:0.64430482;fill:#ffffff" />
        <circle
           id="circle95"
           cx="2055"
           cy="2414"
           r="3"
           style="opacity:0.64430482;fill:#ffffff" />
        <circle
           id="circle97"
           cx="2552"
           cy="2512"
           r="3"
           style="fill:#ffffff" />
        <circle
           id="circle99"
           cx="2762"
           cy="2142"
           r="3"
           style="fill:#ffffff" />
        <circle
           id="circle101"
           cx="1772"
           cy="2112"
           r="3"
           style="opacity:0.64430482;fill:#ffffff" />
        <circle
           id="circle103"
           cx="2732"
           cy="762"
           r="3"
           style="fill:#ffffff" />
        <circle
           id="circle105"
           cx="2662"
           cy="272"
           r="3"
           style="fill:#ffffff" />
        <circle
           id="circle107"
           cx="2252"
           cy="232"
           r="3"
           style="fill:#ffffff" />
        <circle
           id="circle109"
           cx="1812"
           cy="422"
           r="3"
           style="fill:#ffffff" />
        <circle
           id="circle111"
           cx="1632"
           cy="292"
           r="3"
           style="fill:#ffffff" />
        <circle
           id="circle113"
           cx="1072"
           cy="252"
           r="3"
           style="fill:#ffffff" />
        <circle
           id="circle115"
           cx="382"
           cy="360"
           r="3"
           style="fill:#ffffff" />
        <circle
           id="circle117"
           cx="62"
           cy="300"
           r="3"
           style="opacity:0.29568619;fill:#ffffff" />
        <circle
           id="circle119"
           cx="452"
           cy="730"
           r="3"
           style="fill:#ffffff" />
        <circle
           id="circle121"
           cx="482"
           cy="1290"
           r="3"
           style="fill:#ffffff" />
        <circle
           id="circle123"
           cx="232"
           cy="1580"
           r="3"
           style="fill:#ffffff" />
        <circle
           id="circle125"
           cx="72"
           cy="700"
           r="3"
           style="fill:#ffffff" />
        <circle
           id="circle127"
           cx="564"
           cy="1841"
           r="3"
           style="fill:#ffffff" />
        <circle
           id="circle129"
           cx="1252"
           cy="2080"
           r="3"
           style="opacity:0.64430482;fill:#ffffff" />
        <circle
           id="circle131"
           cx="1102"
           cy="970"
           r="3"
           style="opacity:0.64430482;fill:#ffffff" />
        <circle
           id="circle133"
           cx="1762"
           cy="860"
           r="3"
           style="opacity:0.64430482;fill:#ffffff" />
        <circle
           id="circle135"
           cx="1422"
           cy="2360"
           r="3"
           style="fill:#ffffff" />
        <circle
           id="circle137"
           cx="1542"
           cy="2560"
           r="3"
           style="fill:#ffffff" />
        <circle
           id="circle139"
           cx="726"
           cy="1490"
           r="3"
           style="fill:#ffffff" />
        <circle
           id="circle141"
           cx="716"
           cy="680"
           r="3"
           style="fill:#ffffff" />
        <circle
           id="circle143"
           cx="812"
           cy="2420"
           r="3"
           style="fill:#ffffff" />
        <circle
           id="circle145"
           cx="172"
           cy="2280"
           r="3"
           style="fill:#ffffff" />
        <circle
           id="circle147"
           cx="312"
           cy="2570"
           r="3"
           style="fill:#ffffff" />
        <circle
           id="circle149"
           cx="52"
           cy="1830"
           r="3"
           style="fill:#ffffff" />
        <circle
           id="circle151"
           cx="1993.5"
           cy="2061.5"
           r="68.5"
           style="fill:#6da8f1;fill-opacity:0.75" />
        <circle
           id="circle153"
           cx="2516.5"
           cy="1563.5"
           r="68.5"
           style="fill:#f29581;fill-opacity:0.7" />
        <circle
           id="Oval-Copy-12"
           cx="357.5"
           cy="1696.5"
           r="68.5"
           style="fill:#f29581;fill-opacity:0.7" />
        <circle
           id="circle165"
           cx="164.5"
           cy="1299.5"
           r="68.5"
           style="fill:#745dd0;fill-opacity:0.7" />
        <circle
           id="circle167"
           cx="1422.5"
           cy="1419.5"
           r="364.5"
           style="fill:#191919;fill-opacity:0.57999998" />
        <g
           id="icon-chronicled"
           transform="translate(1355,1343)">
          <mask
             id="mask-2"
             fill="white">
            <use
               xlink:href="#path-1"
               id="use169"
               x="0"
               y="0"
               width="100%"
               height="100%" />
          </mask>
          <g
             id="Clip-11" />
        </g>
        <circle
           id="circle174"
           cx="1422.5"
           cy="1419.5"
           r="294.5"
           style="stroke:#ffffff;stroke-width:3;stroke-dasharray:10, 10;stroke-opacity:0.35348732" />
        <circle
           id="circle176"
           cx="1422.5"
           cy="1425.5"
           r="443.5"
           style="stroke:#ffffff;stroke-width:3;stroke-dasharray:10, 10;stroke-opacity:0.17708333" />
        <path
           d="m 1397.4298,1547.0171 c -2.7379,-0.5554 -5.4519,-1.2016 -8.1385,-1.9371 l -1.1242,4.101 c 2.7784,0.7606 5.585,1.4289 8.4163,2.0032 z m -16.1368,-4.4187 c -2.6356,-0.916 -5.2379,-1.9196 -7.8031,-3.0089 l -1.664,3.9135 c 2.6528,1.1265 5.344,2.1643 8.0696,3.1116 z m -15.4666,-6.5738 c -2.4885,-1.2617 -4.9338,-2.6061 -7.332,-4.0307 l -2.1741,3.6551 c 2.4796,1.473 5.008,2.863 7.5811,4.1676 z m -14.3663,-8.5323 c -2.2988,-1.5812 -4.5446,-3.2386 -6.7335,-4.969 l -2.6397,3.3348 c 2.2628,1.7889 4.5844,3.5022 6.961,5.1368 z m -13.2029,-10.4464 c -2.0678,-1.8735 -4.073,-3.8152 -6.0121,-5.8215 l -3.0604,2.9541 c 2.0044,2.0739 4.0772,4.0809 6.2147,6.0175 z m -11.7409,-12.1652 c -1.7985,-2.1326 -3.5258,-4.3242 -5.1787,-6.5711 l -3.4281,2.5186 c 1.7086,2.3227 3.4942,4.5883 5.3534,6.7928 z m -9.7872,-13.2804 c -1.504,-2.3492 -2.9293,-4.7478 -4.2732,-7.1921 l -3.729,2.0477 c 1.3896,2.5273 2.8633,5.0073 4.4182,7.436 z m -8.0965,-14.7395 c -1.1745,-2.5275 -2.2643,-5.0945 -3.2675,-7.6971 l -3.9705,1.5284 c 1.0374,2.6915 2.1645,5.346 3.379,7.9596 z m -6.048,-15.7159 c -0.8221,-2.6608 -1.5554,-5.3513 -2.1985,-8.0678 l -4.1405,0.9789 c 0.665,2.8093 1.4233,5.5916 2.2735,8.3433 z m -3.8778,-16.4291 c -0.4543,-2.7443 -0.8178,-5.5089 -1.0894,-8.2907 l -4.2347,0.413 c 0.2808,2.8758 0.6566,5.7342 1.1263,8.5717 z m -1.6329,-16.8552 c -0.037,-1.2376 -0.055,-2.4775 -0.056,-3.7196 0,-1.5965 0.028,-3.1444 0.084,-4.6947 l -4.252,-0.1546 c -0.058,1.6021 -0.087,3.2015 -0.087,4.8501 6e-4,1.2843 0.02,2.5655 0.057,3.8442 z m 0.6095,-16.766 c 0.2863,-2.78 0.6644,-5.5426 1.1331,-8.2845 l -4.194,-0.7162 c -0.4847,2.8351 -0.8756,5.6913 -1.1715,8.5654 z m 2.8326,-16.5366 c 0.6552,-2.7137 1.4007,-5.401 2.2348,-8.0584 l -4.0598,-1.2727 c -0.8626,2.7482 -1.6335,5.5273 -2.3111,8.3337 z m 5.0005,-15.9342 c 1.0122,-2.6002 2.1112,-5.1644 3.2946,-7.6888 l -3.8529,-1.804 c -1.2238,2.6105 -2.3602,5.2621 -3.407,7.951 z m 7.143,-15.2226 c 1.3515,-2.4386 2.7842,-4.8314 4.2953,-7.1744 l -3.5764,-2.3036 c -1.5623,2.4225 -3.0435,4.8964 -4.4409,7.4177 z m 9.163,-14.1873 c 1.6671,-2.2357 3.4082,-4.4158 5.2201,-6.5364 l -3.2356,-2.7612 c -1.8731,2.1921 -3.6729,4.4457 -5.3962,6.7569 z m 10.7321,-12.5792 c 1.9456,-1.9989 3.957,-3.9329 6.0307,-5.7986 l -2.8467,-3.1602 c -2.1436,1.9286 -4.2228,3.9278 -6.2339,5.994 z m 12.5032,-11.2407 c 2.1947,-1.7232 4.4462,-3.373 6.7504,-4.9466 l -2.4005,-3.5107 c -2.3821,1.6267 -4.7096,3.3323 -6.9785,5.1137 z m 13.9122,-9.4908 c 2.4048,-1.4142 4.8564,-2.748 7.3509,-3.9989 l -1.9082,-3.8005 c -2.5793,1.2934 -5.1142,2.6725 -7.6006,4.1348 z m 15.0889,-7.5545 c 2.5713,-1.0768 5.1792,-2.0678 7.8202,-2.9709 l -1.3775,-4.0231 c -2.7312,0.934 -5.4282,1.9587 -8.0872,3.0724 z m 16.0215,-5.4637 c 2.6914,-0.7179 5.4097,-1.3463 8.1514,-1.8838 l -0.8191,-4.1726 c -2.8352,0.5558 -5.6463,1.2057 -8.4295,1.9481 z m 16.276,-3.2009 c 2.7601,-0.3549 5.5381,-0.6189 8.331,-0.7911 l -0.2619,-4.244 c -2.8869,0.1779 -5.7587,0.4509 -8.6121,0.8178 z m 16.414,-1.032 c 2.8016,0.01 5.592,0.102 8.3682,0.2897 l 0.2873,-4.2424 c -2.8692,-0.194 -5.7528,-0.2941 -8.6478,-0.2994 z m 16.7039,1.132 c 2.7691,0.3733 5.5187,0.838 8.2456,1.393 l 0.8491,-4.1666 c -2.8197,-0.5739 -5.6629,-1.0544 -8.526,-1.4403 z m 16.463,3.3574 c 2.6937,0.7413 5.3587,1.5722 7.9915,2.4909 l 1.4026,-4.0144 c -2.7226,-0.9501 -5.4787,-1.8094 -8.2645,-2.576 z m 15.7787,5.5046 c 2.5675,1.0938 5.0967,2.2731 7.5838,3.5355 l 1.9268,-3.791 c -2.5717,-1.3055 -5.187,-2.5249 -7.8421,-3.656 z m 15.0061,7.6248 c 2.3964,1.4279 4.7445,2.9354 7.0405,4.5196 l 2.4174,-3.4992 c -2.3737,-1.6378 -4.8013,-3.1963 -7.2789,-4.6726 z m 13.9194,9.6197 c 2.183,1.7364 4.3079,3.5449 6.371,5.4222 l 2.8646,-3.1441 c -2.1327,-1.9406 -4.3293,-3.8101 -6.5858,-5.605 z m 12.2024,11.0818 c 1.9387,2.0068 3.8105,4.0773 5.6118,6.2079 l 3.2501,-2.7442 c -1.8621,-2.2025 -3.7969,-4.3427 -5.8009,-6.4171 z m 10.8535,12.8474 c 1.6538,2.2459 3.2325,4.5461 4.733,6.8967 l 3.5871,-2.2869 c -1.5514,-2.4302 -3.1835,-4.8082 -4.8931,-7.13 z m 9.0627,14.2146 c 1.3373,2.4461 2.5927,4.9366 3.7638,7.4675 l 3.8619,-1.7847 c -1.211,-2.6171 -2.5091,-5.1923 -3.8919,-7.7216 z m 7.0786,15.3264 c 0.9944,2.6029 1.9017,5.2401 2.7202,7.908 l 4.068,-1.2464 c -0.8465,-2.759 -1.7848,-5.4864 -2.8132,-8.1782 z m 4.9491,16.1788 c 0.6313,2.7108 1.1726,5.4462 1.6225,8.203 l 4.1993,-0.6844 c -0.4652,-2.8506 -1.0249,-5.6793 -1.6777,-8.4825 z m 2.6423,15.9751 c 0.2755,2.7665 0.46,5.5493 0.5526,8.3451 l 4.2525,-0.1408 c -0.096,-2.8894 -0.2864,-5.7656 -0.5712,-8.6254 z m 0.5539,16.765 c -0.092,2.7957 -0.2754,5.5782 -0.55,8.3446 l 4.234,0.4197 c 0.2839,-2.8596 0.4737,-5.7355 0.5686,-8.6248 z m -1.6551,16.6484 c -0.461,2.7556 -1.0134,5.4898 -1.6559,8.1989 l 4.1402,0.9806 c 0.6643,-2.8016 1.2356,-5.6289 1.7123,-8.4784 z m -3.8924,16.3781 c -0.8269,2.6636 -1.7425,5.2963 -2.7449,7.8944 l 3.97,1.5297 c 1.0366,-2.6869 1.9835,-5.4096 2.8386,-8.1641 z m -5.9981,15.5546 c -1.1754,2.5292 -2.4349,5.0179 -3.7764,7.462 l 3.7305,2.0449 c 1.3871,-2.5273 2.6895,-5.1006 3.9049,-7.716 z m -8.1133,14.7656 c -1.5041,2.3481 -3.0862,4.6456 -4.7433,6.8887 l 3.4231,2.5255 c 1.7131,-2.3189 3.3486,-4.6941 4.9037,-7.1216 z m -9.9568,13.4747 c -1.8032,2.1283 -3.6768,4.1964 -5.6173,6.2007 l 3.0579,2.9567 c 2.0058,-2.0719 3.9425,-4.2096 5.8065,-6.4096 z m -11.5698,11.9586 c -2.0671,1.8723 -4.1957,3.6756 -6.3822,5.4067 l 2.6421,3.3329 c 2.2603,-1.7895 4.4607,-3.6536 6.5974,-5.589 z m -13.1962,10.4384 c -2.2983,1.5806 -4.6486,3.0843 -7.0471,4.5085 l 2.1734,3.6555 c 2.4797,-1.4724 4.9096,-3.027 7.2857,-4.6611 z m -14.5062,8.6017 c -2.4889,1.2577 -5.0198,2.4321 -7.5889,3.5211 l 1.6614,3.9145 c 2.6566,-1.1261 5.2738,-2.3405 7.8474,-3.6411 z m -15.5568,6.5812 c -2.6342,0.9095 -5.3004,1.7311 -7.995,2.4632 l 1.1161,4.1032 c 2.7867,-0.7571 5.5441,-1.6068 8.2683,-2.5473 z"
           id="path178"
           inkscape:connector-curvature="0"
           style="fill:url(#linearGradient-3);fill-rule:nonzero" />
        <path
           d="m 1222.2604,1423.7115 c 0,-14.1305 1.4661,-28.0662 4.3459,-41.6505 l -2.5891,-7.7405 c -3.931,15.8162 -6.0172,32.3602 -6.0172,49.391 0,64.0063 29.4664,121.1374 75.587,158.5947 l -2.5883,-7.7382 c -43.2948,-37.6763 -68.7383,-92.1791 -68.7383,-150.8565 z m 0,0 c 0,-14.1305 1.4661,-28.0662 4.3459,-41.6505 l -2.5891,-7.7405 c -3.931,15.8162 -6.0172,32.3602 -6.0172,49.391 0,64.0063 29.4664,121.1374 75.587,158.5947 l -2.5883,-7.7382 c -43.2948,-37.6763 -68.7383,-92.1791 -68.7383,-150.8565 z m 308.3508,173.4393 C 1499.2464,1616.7026 1462.1939,1628 1422.5,1628 c -39.6939,0 -76.7464,-11.2974 -108.1111,-30.8492 h 8.2799 c 30.0802,17.3195 64.2667,26.5932 99.8312,26.5932 35.5645,0 69.751,-9.2737 99.8312,-26.5932 z m 0,0 C 1499.2464,1616.7026 1462.1939,1628 1422.5,1628 c -39.6939,0 -76.7464,-11.2974 -108.1111,-30.8492 h 8.2799 c 30.0802,17.3195 64.2667,26.5932 99.8312,26.5932 35.5645,0 69.751,-9.2737 99.8312,-26.5932 z m 90.3716,-222.8303 c 3.931,15.8162 6.0172,32.3602 6.0172,49.391 0,64.0063 -29.4664,121.1374 -75.587,158.5947 l 2.5883,-7.7382 c 43.2948,-37.6763 68.7383,-92.1791 68.7383,-150.8565 0,-14.1305 -1.4661,-28.0662 -4.3459,-41.6505 z m 0,0 c 3.931,15.8162 6.0172,32.3602 6.0172,49.391 0,64.0063 -29.4664,121.1374 -75.587,158.5947 l 2.5883,-7.7382 c 43.2948,-37.6763 68.7383,-92.1791 68.7383,-150.8565 0,-14.1305 -1.4661,-28.0662 -4.3459,-41.6505 z m -13.9268,-28.3523 6.5094,4.7652 c -28.0284,-73.1859 -96.9816,-126.1505 -178.8914,-130.9545 l 6.501,4.759 c 73.7706,6.8294 137.3892,53.9739 165.881,121.4303 z m 0,0 6.5094,4.7652 c -28.0284,-73.1859 -96.9816,-126.1505 -178.8914,-130.9545 l 6.501,4.759 c 73.7706,6.8294 137.3892,53.9739 165.881,121.4303 z m -375.6214,4.7652 c 28.0284,-73.1859 96.9816,-126.1505 178.8914,-130.9545 l -6.501,4.759 c -73.7705,6.8294 -137.3892,53.9739 -165.881,121.4303 z m 0,0 c 28.0284,-73.1859 96.9816,-126.1505 178.8914,-130.9545 l -6.501,4.759 c -73.7705,6.8294 -137.3892,53.9739 -165.881,121.4303 z"
           id="path185"
           inkscape:connector-curvature="0"
           style="fill:url(#linearGradient-3);fill-rule:nonzero" />
        <path
           d="m 1422.5,1232.2913 c 4.7059,0 8.5208,-3.8129 8.5208,-8.5165 0,-4.7035 -3.8149,-8.5165 -8.5208,-8.5165 -4.7059,0 -8.5208,3.813 -8.5208,8.5165 0,4.7036 3.8149,8.5165 8.5208,8.5165 z m 0,4.2583 c -7.0589,0 -12.7812,-5.7195 -12.7812,-12.7748 0,-7.0553 5.7223,-12.7748 12.7812,-12.7748 7.0589,0 12.7813,5.7195 12.7813,12.7748 0,7.0553 -5.7224,12.7748 -12.7813,12.7748 z m 191.7188,135.6219 c 4.7059,0 8.5208,-3.813 8.5208,-8.5166 0,-4.7035 -3.8149,-8.5165 -8.5208,-8.5165 -4.706,0 -8.5209,3.813 -8.5209,8.5165 0,4.7036 3.8149,8.5166 8.5209,8.5166 z m 0,4.2582 c -7.0589,0 -12.7813,-5.7194 -12.7813,-12.7748 0,-7.0553 5.7224,-12.7748 12.7813,-12.7748 7.0588,0 12.7812,5.7195 12.7812,12.7748 0,7.0554 -5.7224,12.7748 -12.7812,12.7748 z m -73.2301,222.0726 c 4.7059,0 8.5208,-3.813 8.5208,-8.5166 0,-4.7035 -3.8149,-8.5165 -8.5208,-8.5165 -4.7059,0 -8.5208,3.813 -8.5208,8.5165 0,4.7036 3.8149,8.5166 8.5208,8.5166 z m 0,4.2582 c -7.0589,0 -12.7812,-5.7194 -12.7812,-12.7748 0,-7.0553 5.7223,-12.7748 12.7812,-12.7748 7.0589,0 12.7813,5.7195 12.7813,12.7748 0,7.0554 -5.7224,12.7748 -12.7813,12.7748 z m -236.9774,-4.2582 c 4.7059,0 8.5208,-3.813 8.5208,-8.5166 0,-4.7035 -3.8149,-8.5165 -8.5208,-8.5165 -4.7059,0 -8.5208,3.813 -8.5208,8.5165 0,4.7036 3.8149,8.5166 8.5208,8.5166 z m 0,4.2582 c -7.0589,0 -12.7813,-5.7194 -12.7813,-12.7748 0,-7.0553 5.7224,-12.7748 12.7813,-12.7748 7.0589,0 12.7812,5.7195 12.7812,12.7748 0,7.0554 -5.7223,12.7748 -12.7812,12.7748 z m -73.23,-230.589 c 4.7059,0 8.5208,-3.813 8.5208,-8.5166 0,-4.7035 -3.8149,-8.5165 -8.5208,-8.5165 -4.706,0 -8.5209,3.813 -8.5209,8.5165 0,4.7036 3.8149,8.5166 8.5209,8.5166 z m 0,4.2582 c -7.0589,0 -12.7813,-5.7194 -12.7813,-12.7748 0,-7.0553 5.7224,-12.7748 12.7813,-12.7748 7.0588,0 12.7812,5.7195 12.7812,12.7748 0,7.0554 -5.7224,12.7748 -12.7812,12.7748 z"
           id="Oval-16"
           inkscape:connector-curvature="0"
           style="fill:#ffffff;fill-rule:nonzero" />
        <g
           id="Group-11"
           transform="translate(2008,1388)"
           style="stroke:#ffffff;stroke-width:3" />
        <path
           d="m 1448.2139,1301.007 c 2.7379,0.5554 5.4519,1.2016 8.1385,1.9371 l 1.1242,-4.101 c -2.7784,-0.7606 -5.585,-1.4289 -8.4163,-2.0032 z m 16.1368,4.4187 c 2.6356,0.916 5.2379,1.9196 7.8031,3.0089 l 1.664,-3.9135 c -2.6528,-1.1265 -5.344,-2.1643 -8.0696,-3.1116 z m 15.4666,6.5738 c 2.4885,1.2617 4.9338,2.6061 7.332,4.0307 l 2.1741,-3.6551 c -2.4796,-1.473 -5.008,-2.863 -7.5811,-4.1676 z m 14.3662,8.5323 c 2.2989,1.5812 4.5446,3.2386 6.7336,4.969 l 2.6396,-3.3348 c -2.2627,-1.7889 -4.5843,-3.5022 -6.961,-5.1368 z m 13.2029,10.4464 c 2.0679,1.8735 4.0731,3.8152 6.0121,5.8215 l 3.0604,-2.9541 c -2.0044,-2.0739 -4.0771,-4.0809 -6.2147,-6.0175 z m 11.7409,12.1652 c 1.7986,2.1326 3.5258,4.3242 5.1787,6.5711 l 3.4282,-2.5186 c -1.7086,-2.3227 -3.4943,-4.5883 -5.3534,-6.7928 z m 9.7872,13.2804 c 1.504,2.3492 2.9293,4.7478 4.2733,7.1921 l 3.729,-2.0477 c -1.3896,-2.5273 -2.8633,-5.0073 -4.4182,-7.436 z m 8.0966,14.7395 c 1.1745,2.5275 2.2643,5.0945 3.2675,7.6971 l 3.9704,-1.5284 c -1.0374,-2.6915 -2.1645,-5.346 -3.3789,-7.9596 z m 6.048,15.7159 c 0.8221,2.6608 1.5554,5.3513 2.1985,8.0678 l 4.1405,-0.9789 c -0.665,-2.8093 -1.4233,-5.5916 -2.2735,-8.3433 z m 3.8778,16.4291 c 0.4543,2.7443 0.8178,5.5089 1.0894,8.2907 l 4.2347,-0.413 c -0.2808,-2.8758 -0.6566,-5.7342 -1.1263,-8.5717 z m 1.6329,16.8552 c 0.037,1.2376 0.055,2.4775 0.056,3.7196 0,1.5965 -0.028,3.1444 -0.084,4.6947 l 4.252,0.1546 c 0.058,-1.6021 0.087,-3.2015 0.087,-4.8501 -7e-4,-1.2843 -0.02,-2.5655 -0.057,-3.8442 z m -0.6095,16.766 c -0.2863,2.78 -0.6644,5.5426 -1.1331,8.2845 l 4.194,0.7162 c 0.4847,-2.8351 0.8756,-5.6913 1.1714,-8.5654 z m -2.8326,16.5366 c -0.6552,2.7137 -1.4007,5.401 -2.2348,8.0584 l 4.0598,1.2727 c 0.8626,-2.7482 1.6335,-5.5273 2.3111,-8.3337 z m -5.0005,15.9342 c -1.0122,2.6002 -2.1113,5.1644 -3.2946,7.6888 l 3.8529,1.804 c 1.2238,-2.6105 2.3602,-5.2621 3.407,-7.951 z m -7.143,15.2226 c -1.3515,2.4386 -2.7843,4.8314 -4.2953,7.1744 l 3.5763,2.3036 c 1.5623,-2.4225 3.0435,-4.8964 4.4409,-7.4177 z m -9.163,14.1873 c -1.6671,2.2357 -3.4083,4.4158 -5.2201,6.5364 l 3.2355,2.7612 c 1.8732,-2.1921 3.673,-4.4457 5.3962,-6.7569 z m -10.7321,12.5792 c -1.9456,1.9989 -3.9571,3.9329 -6.0307,5.7986 l 2.8467,3.1602 c 2.1436,-1.9286 4.2228,-3.9278 6.2339,-5.994 z m -12.5033,11.2407 c -2.1947,1.7232 -4.4462,3.373 -6.7503,4.9466 l 2.4005,3.5107 c 2.3821,-1.6267 4.7095,-3.3323 6.9784,-5.1137 z m -13.9122,9.4908 c -2.4048,1.4142 -4.8563,2.748 -7.3508,3.9989 l 1.9082,3.8005 c 2.5793,-1.2934 5.1142,-2.6725 7.6006,-4.1348 z m -15.0888,7.5545 c -2.5714,1.0768 -5.1793,2.0678 -7.8202,2.9709 l 1.3775,4.0231 c 2.7312,-0.934 5.4282,-1.9587 8.0872,-3.0724 z m -16.0216,5.4637 c -2.6913,0.7179 -5.4096,1.3463 -8.1514,1.8838 l 0.8191,4.1726 c 2.8352,-0.5558 5.6464,-1.2057 8.4295,-1.9481 z m -16.276,3.2009 c -2.7601,0.3549 -5.5381,0.6189 -8.331,0.7911 l 0.2619,4.244 c 2.8869,-0.1779 5.7588,-0.4509 8.6121,-0.8178 z m -16.414,1.032 c -2.8016,-0.01 -5.592,-0.102 -8.3681,-0.2897 l -0.2873,4.2424 c 2.8692,0.194 5.7528,0.2941 8.6478,0.2994 z m -16.7039,-1.132 c -2.7691,-0.3733 -5.5187,-0.838 -8.2456,-1.393 l -0.849,4.1666 c 2.8197,0.5739 5.6629,1.0544 8.526,1.4403 z m -16.463,-3.3574 c -2.6937,-0.7413 -5.3587,-1.5722 -7.9915,-2.4909 l -1.4026,4.0144 c 2.7227,0.9501 5.4787,1.8094 8.2645,2.576 z m -15.7787,-5.5046 c -2.5675,-1.0938 -5.0967,-2.2732 -7.5838,-3.5355 l -1.9268,3.791 c 2.5717,1.3055 5.187,2.5248 7.8421,3.656 z m -15.0061,-7.6248 c -2.3964,-1.4279 -4.7445,-2.9355 -7.0405,-4.5197 l -2.4174,3.4992 c 2.3737,1.6378 4.8013,3.1964 7.2789,4.6727 z m -13.9194,-9.6197 c -2.183,-1.7364 -4.3079,-3.545 -6.371,-5.4222 l -2.8646,3.1441 c 2.1327,1.9405 4.3293,3.8101 6.5858,5.605 z m -12.2024,-11.0818 c -1.9387,-2.0068 -3.8105,-4.0773 -5.6117,-6.2079 l -3.2501,2.7442 c 1.8621,2.2025 3.7969,4.3427 5.8008,6.4171 z m -10.8535,-12.8474 c -1.6538,-2.2459 -3.2325,-4.5461 -4.7329,-6.8967 l -3.5871,2.2869 c 1.5514,2.4302 3.1835,4.8082 4.8931,7.13 z m -9.0626,-14.2146 c -1.3373,-2.4461 -2.5927,-4.9366 -3.7638,-7.4675 l -3.862,1.7846 c 1.211,2.6171 2.5091,5.1923 3.892,7.7217 z m -7.0787,-15.3264 c -0.9944,-2.6029 -1.9016,-5.2401 -2.7201,-7.908 l -4.068,1.2464 c 0.8465,2.759 1.7847,5.4864 2.8132,8.1782 z m -4.9491,-16.1788 c -0.6313,-2.7108 -1.1726,-5.4462 -1.6225,-8.203 l -4.1993,0.6844 c 0.4653,2.8506 1.0249,5.6793 1.6777,8.4825 z m -2.6423,-15.9751 c -0.2755,-2.7665 -0.46,-5.5493 -0.5526,-8.3451 l -4.2525,0.1407 c 0.096,2.8895 0.2864,5.7656 0.5713,8.6254 z m -0.5539,-16.7651 c 0.092,-2.7956 0.2754,-5.5781 0.55,-8.3445 l -4.234,-0.4197 c -0.2839,2.8596 -0.4737,5.7355 -0.5686,8.6248 z m 1.6551,-16.6484 c 0.461,-2.7556 1.0134,-5.4898 1.6559,-8.1989 l -4.1402,-0.9806 c -0.6643,2.8016 -1.2356,5.6289 -1.7123,8.4784 z m 3.8924,-16.378 c 0.8269,-2.6637 1.7425,-5.2963 2.7449,-7.8944 l -3.97,-1.5297 c -1.0366,2.6869 -1.9835,5.4096 -2.8386,8.1641 z m 5.9981,-15.5546 c 1.1754,-2.5292 2.4349,-5.0179 3.7764,-7.462 l -3.7305,-2.0449 c -1.3871,2.5272 -2.6895,5.1006 -3.9049,7.7159 z m 8.1133,-14.7656 c 1.5041,-2.3481 3.0862,-4.6456 4.7433,-6.8887 l -3.4231,-2.5255 c -1.7131,2.3189 -3.3486,4.6941 -4.9037,7.1216 z m 9.9568,-13.4747 c 1.8032,-2.1283 3.6768,-4.1964 5.6173,-6.2007 l -3.0579,-2.9567 c -2.0058,2.0719 -3.9425,4.2096 -5.8065,6.4096 z m 11.5698,-11.9586 c 2.0671,-1.8723 4.1957,-3.6756 6.3822,-5.4067 l -2.6421,-3.3329 c -2.2603,1.7895 -4.4607,3.6536 -6.5974,5.589 z m 13.1962,-10.4384 c 2.2983,-1.5806 4.6486,-3.0843 7.0471,-4.5085 l -2.1734,-3.6555 c -2.4797,1.4724 -4.9096,3.027 -7.2857,4.6611 z m 14.5062,-8.6017 c 2.4889,-1.2577 5.0198,-2.4321 7.5889,-3.5211 l -1.6614,-3.9145 c -2.6566,1.1261 -5.2738,2.3405 -7.8474,3.6411 z m 15.5568,-6.5812 c 2.6342,-0.9095 5.3004,-1.7311 7.995,-2.4632 l -1.1161,-4.1032 c -2.7867,0.7571 -5.5441,1.6068 -8.2683,2.5473 z"
           id="path178-3"
           inkscape:connector-curvature="0"
           style="fill:url(#linearGradient-3-8);fill-rule:nonzero;stroke:none;stroke-width:1" />
      </g>
    </g>
  </g>
</svg>
